<?xml version="1.0" encoding="UTF-8" standalone="no"?>
<svg
   xmlns:dc="http://purl.org/dc/elements/1.1/"
   xmlns:cc="http://creativecommons.org/ns#"
   xmlns:rdf="http://www.w3.org/1999/02/22-rdf-syntax-ns#"
   xmlns:svg="http://www.w3.org/2000/svg"
   xmlns="http://www.w3.org/2000/svg"
   xmlns:sodipodi="http://sodipodi.sourceforge.net/DTD/sodipodi-0.dtd"
   xmlns:inkscape="http://www.inkscape.org/namespaces/inkscape"
   version="1.0"
   width="735.000000pt"
   height="486.000000pt"
   viewBox="0 0 735.000000 486.000000"
   preserveAspectRatio="xMidYMid meet"
   id="svg20"
   sodipodi:docname="coffee-ness.svg"
   inkscape:version="0.92.3 (2405546, 2018-03-11)">
  <defs
     id="defs24" />
  <sodipodi:namedview
     pagecolor="#ffffff"
     bordercolor="#666666"
     borderopacity="1"
     objecttolerance="10"
     gridtolerance="10"
     guidetolerance="10"
     inkscape:pageopacity="0"
     inkscape:pageshadow="2"
     inkscape:window-width="1360"
     inkscape:window-height="705"
     id="namedview22"
     showgrid="false"
     inkscape:zoom="0.7122449"
     inkscape:cx="572.41861"
     inkscape:cy="281.72176"
     inkscape:window-x="-8"
     inkscape:window-y="-8"
     inkscape:window-maximized="1"
     inkscape:current-layer="g18" />
  <metadata
     id="metadata2">
Created by potrace 1.14, written by Peter Selinger 2001-2017
<rdf:RDF>
  <cc:Work
     rdf:about="">
    <dc:format>image/svg+xml</dc:format>
    <dc:type
       rdf:resource="http://purl.org/dc/dcmitype/StillImage" />
  </cc:Work>
</rdf:RDF>
</metadata>
  <g
     transform="matrix(0.1,0,0,-0.1,0,484.94699)"
     id="g18"
     style="fill:#000000;stroke:none">
    <path
       d="m 4583.1862,3402.7106 c -251,-31 -538,-152 -791,-333 -48,-34 -159,-123 -245,-198 -247,-212 -328,-269 -450,-317 l -52,-21 -16,25 c -8,13 -22,45 -30,71 -29,95 -68,124 -171,124 -113,-1 -203,-69 -203,-153 0,-81 43,-122 174,-167 46,-15 99,-35 118,-44 l 35,-17 18,-134 c 17,-132 16,-238 -3,-257 -14,-14 -44,16 -265,267 -276,314 -346,363 -528,373 -72,4 -91,1 -126,-16 -97,-50 -153,-134 -153,-230 0,-109 62,-170 185,-180 75,-6 77,-2 49,81 -15,44 -15,49 1,73 12,19 21,23 38,18 75,-23 126,-110 154,-264 23,-131 25,-535 3,-595 -14,-36 -19,-40 -45,-37 -97,9 -99,9 -117,-28 -38,-76 -12,-161 62,-204 26,-16 53,-21 104,-21 68,0 68,0 107,44 96,108 108,290 45,665 -21,120 -35,220 -33,222 2,2 37,-25 78,-60 83,-71 191,-193 299,-336 39,-52 86,-108 103,-123 33,-29 115,-72 123,-64 2,2 11,35 19,73 18,92 21,208 11,514 l -8,255 91,22 c 150,36 308,118 631,328 306,200 461,281 625,331 82,25 105,27 260,28 153,1 177,-1 237,-22 126,-44 207,-149 215,-282 7,-110 -44,-170 -144,-170 -42,0 -43,-1 -43,-32 0,-99 77,-199 181,-234 126,-42 269,-15 349,65 108,108 155,327 106,496 -65,221 -292,391 -603,451 -100,19 -296,26 -395,13 z"
       id="path10"
       inkscape:connector-curvature="0" />
    <path
       d="m 4680.1862,2937.7106 c -123,-30 -213,-84 -251,-152 -15,-26 -40,-67 -56,-92 l -30,-45 h -132 c -129,0 -133,-1 -199,-33 -78,-39 -168,-118 -232,-206 l -46,-62 -79,40 c -71,35 -88,39 -153,39 -62,0 -81,-4 -126,-29 -123,-67 -211,-243 -211,-423 0,-104 10,-144 53,-208 48,-72 119,-104 241,-111 82,-4 102,-2 145,17 69,29 78,27 86,-16 17,-95 74,-176 150,-216 62,-32 182,-35 265,-7 150,50 243,142 276,271 12,48 13,70 4,111 -21,102 -78,161 -257,266 -184,109 -213,139 -213,226 0,82 74,141 190,152 30,3 61,1 68,-4 17,-11 31,-73 32,-132 0,-63 10,-74 56,-67 56,9 84,35 126,113 20,38 43,73 50,78 20,12 169,-65 224,-116 54,-50 71,-101 50,-151 -31,-75 -121,-103 -171,-52 -21,20 -25,34 -25,87 0,93 -7,109 -39,102 -58,-14 -101,-47 -126,-98 -30,-59 -32,-115 -6,-171 55,-122 211,-165 352,-98 126,60 199,154 199,257 -1,99 -48,163 -178,242 -185,112 -212,139 -212,207 0,70 66,117 164,117 67,0 80,-16 70,-88 -7,-58 9,-78 57,-68 73,14 119,81 119,172 0,60 -25,111 -63,131 -31,16 -135,26 -172,17 z m -1091,-747 c -1,-22 -10,-51 -21,-65 -19,-28 -87,-66 -135,-77 -40,-10 -48,30 -17,92 31,62 79,95 134,91 40,-3 40,-3 39,-41 z m 250,-101 c 39,-30 112,-78 161,-106 140,-80 175,-121 175,-205 0,-103 -86,-174 -175,-145 -46,15 -62,47 -70,140 -13,157 -16,161 -90,115 -51,-31 -66,-31 -95,0 -13,14 -29,25 -36,25 -6,0 -34,-18 -60,-41 -77,-63 -103,-73 -185,-70 -29,1 -69,61 -69,103 0,23 10,29 90,58 105,37 195,94 229,145 13,19 30,35 39,35 8,0 47,-24 86,-54 z"
       id="path12"
       inkscape:connector-curvature="0" />
  </g>
</svg>
